<svg width="153" height="44" viewBox="0 0 153 44" fill="none" xmlns="http://www.w3.org/2000/svg">
<path d="M10.1527 20.6364V23.6193H0.745739V20.6364H10.1527ZM3.06818 16.7159H6.92472V32.0781C6.92472 32.5966 7.00284 32.9943 7.15909 33.2713C7.32244 33.5412 7.53551 33.7259 7.7983 33.8253C8.06108 33.9247 8.35227 33.9744 8.67188 33.9744C8.91335 33.9744 9.13352 33.9567 9.33239 33.9212C9.53835 33.8857 9.6946 33.8537 9.80114 33.8253L10.451 36.8402C10.245 36.9112 9.95028 36.9893 9.56676 37.0746C9.19034 37.1598 8.72869 37.2095 8.18182 37.2237C7.21591 37.2521 6.34588 37.1065 5.57173 36.7869C4.79759 36.4602 4.18324 35.956 3.72869 35.2741C3.28125 34.5923 3.06108 33.7401 3.06818 32.7173V16.7159ZM23.8077 30.1179V20.6364H27.6642V37H23.9249V34.0916H23.7544C23.3851 35.0078 22.7779 35.7571 21.9327 36.3395C21.0946 36.9219 20.0613 37.2131 18.8326 37.2131C17.7601 37.2131 16.812 36.9751 15.9881 36.4993C15.1713 36.0163 14.5321 35.3168 14.0705 34.4006C13.6088 33.4773 13.378 32.3622 13.378 31.0554V20.6364H17.2346V30.4588C17.2346 31.4957 17.5186 32.3196 18.0868 32.9304C18.655 33.5412 19.4007 33.8466 20.324 33.8466C20.8922 33.8466 21.4426 33.7081 21.9753 33.4311C22.508 33.1541 22.9448 32.7422 23.2857 32.1953C23.6337 31.6413 23.8077 30.9489 23.8077 30.1179ZM35.4865 27.4119V37H31.63V20.6364H35.3161V23.4169H35.5078C35.8842 22.5007 36.4844 21.7727 37.3082 21.233C38.1392 20.6932 39.1655 20.4233 40.3871 20.4233C41.5163 20.4233 42.5 20.6648 43.3381 21.1477C44.1832 21.6307 44.8366 22.3303 45.2983 23.2464C45.767 24.1626 45.9979 25.2741 45.9908 26.581V37H42.1342V27.1776C42.1342 26.0838 41.8501 25.228 41.282 24.6101C40.7209 23.9922 39.9432 23.6832 38.9489 23.6832C38.2741 23.6832 37.674 23.8324 37.1484 24.1307C36.63 24.4219 36.2216 24.8445 35.9233 25.3984C35.6321 25.9524 35.4865 26.6236 35.4865 27.4119ZM53.7678 15.1818V37H49.9112V15.1818H53.7678Z" fill="#469BFF"/>
<path d="M60.1092 37.2344C59.4629 37.2344 58.9089 37.0071 58.4473 36.5526C57.9856 36.098 57.7583 35.544 57.7654 34.8906C57.7583 34.2514 57.9856 33.7045 58.4473 33.25C58.9089 32.7955 59.4629 32.5682 60.1092 32.5682C60.7342 32.5682 61.2775 32.7955 61.7392 33.25C62.2079 33.7045 62.4458 34.2514 62.4529 34.8906C62.4458 35.3239 62.3322 35.718 62.112 36.0732C61.899 36.4283 61.6149 36.7124 61.2598 36.9254C60.9118 37.1314 60.5282 37.2344 60.1092 37.2344Z" fill="black"/>
<path d="M73.5724 37.3196C71.9744 37.3196 70.5895 36.968 69.4176 36.2649C68.2457 35.5618 67.3366 34.5781 66.6903 33.3139C66.0511 32.0497 65.7315 30.5724 65.7315 28.8821C65.7315 27.1918 66.0511 25.7109 66.6903 24.4396C67.3366 23.1683 68.2457 22.1811 69.4176 21.478C70.5895 20.7749 71.9744 20.4233 73.5724 20.4233C75.1705 20.4233 76.5554 20.7749 77.7273 21.478C78.8991 22.1811 79.8047 23.1683 80.4439 24.4396C81.0902 25.7109 81.4134 27.1918 81.4134 28.8821C81.4134 30.5724 81.0902 32.0497 80.4439 33.3139C79.8047 34.5781 78.8991 35.5618 77.7273 36.2649C76.5554 36.968 75.1705 37.3196 73.5724 37.3196ZM73.5938 34.2301C74.4602 34.2301 75.1847 33.9922 75.767 33.5163C76.3494 33.0334 76.7827 32.3871 77.0668 31.5774C77.358 30.7678 77.5036 29.8658 77.5036 28.8714C77.5036 27.87 77.358 26.9645 77.0668 26.1548C76.7827 25.3381 76.3494 24.6882 75.767 24.2053C75.1847 23.7223 74.4602 23.4808 73.5938 23.4808C72.706 23.4808 71.9673 23.7223 71.3778 24.2053C70.7955 24.6882 70.3587 25.3381 70.0675 26.1548C69.7834 26.9645 69.6413 27.87 69.6413 28.8714C69.6413 29.8658 69.7834 30.7678 70.0675 31.5774C70.3587 32.3871 70.7955 33.0334 71.3778 33.5163C71.9673 33.9922 72.706 34.2301 73.5938 34.2301ZM88.5431 27.4119V37H84.6866V20.6364H88.3727V23.4169H88.5645C88.9409 22.5007 89.541 21.7727 90.3649 21.233C91.1958 20.6932 92.2221 20.4233 93.4437 20.4233C94.573 20.4233 95.5566 20.6648 96.3947 21.1477C97.2399 21.6307 97.8933 22.3303 98.3549 23.2464C98.8237 24.1626 99.0545 25.2741 99.0474 26.581V37H95.1909V27.1776C95.1909 26.0838 94.9068 25.228 94.3386 24.6101C93.7775 23.9922 92.9998 23.6832 92.0055 23.6832C91.3308 23.6832 90.7306 23.8324 90.2051 24.1307C89.6866 24.4219 89.2782 24.8445 88.9799 25.3984C88.6887 25.9524 88.5431 26.6236 88.5431 27.4119ZM106.824 15.1818V37H102.968V15.1818H106.824ZM110.79 37V20.6364H114.647V37H110.79ZM112.729 18.3139C112.118 18.3139 111.593 18.1115 111.152 17.7067C110.712 17.2947 110.492 16.8011 110.492 16.2259C110.492 15.6435 110.712 15.1499 111.152 14.745C111.593 14.3331 112.118 14.1271 112.729 14.1271C113.347 14.1271 113.873 14.3331 114.306 14.745C114.746 15.1499 114.966 15.6435 114.966 16.2259C114.966 16.8011 114.746 17.2947 114.306 17.7067C113.873 18.1115 113.347 18.3139 112.729 18.3139ZM122.469 27.4119V37H118.612V20.6364H122.298V23.4169H122.49C122.867 22.5007 123.467 21.7727 124.291 21.233C125.122 20.6932 126.148 20.4233 127.369 20.4233C128.499 20.4233 129.482 20.6648 130.32 21.1477C131.166 21.6307 131.819 22.3303 132.281 23.2464C132.749 24.1626 132.98 25.2741 132.973 26.581V37H129.117V27.1776C129.117 26.0838 128.833 25.228 128.264 24.6101C127.703 23.9922 126.926 23.6832 125.931 23.6832C125.257 23.6832 124.656 23.8324 124.131 24.1307C123.612 24.4219 123.204 24.8445 122.906 25.3984C122.615 25.9524 122.469 26.6236 122.469 27.4119ZM144.138 37.3196C142.497 37.3196 141.08 36.9787 139.887 36.2969C138.701 35.608 137.789 34.6349 137.149 33.3778C136.51 32.1136 136.191 30.6257 136.191 28.9141C136.191 27.2308 136.51 25.7536 137.149 24.4822C137.796 23.2038 138.698 22.2095 139.855 21.4993C141.013 20.782 142.373 20.4233 143.936 20.4233C144.944 20.4233 145.896 20.5866 146.791 20.9134C147.693 21.233 148.488 21.7301 149.177 22.4048C149.873 23.0795 150.42 23.9389 150.818 24.983C151.215 26.0199 151.414 27.2557 151.414 28.6903V29.8729H138.002V27.2734H147.718C147.71 26.5348 147.551 25.8778 147.238 25.3026C146.926 24.7202 146.489 24.2621 145.928 23.9283C145.374 23.5945 144.727 23.4276 143.989 23.4276C143.2 23.4276 142.508 23.6193 141.911 24.0028C141.315 24.3793 140.85 24.8764 140.516 25.4943C140.189 26.1051 140.022 26.7763 140.015 27.5078V29.777C140.015 30.7287 140.189 31.5455 140.537 32.2273C140.885 32.902 141.372 33.4205 141.997 33.7827C142.622 34.1378 143.353 34.3153 144.191 34.3153C144.752 34.3153 145.26 34.2372 145.715 34.081C146.169 33.9176 146.563 33.6797 146.897 33.3672C147.231 33.0547 147.483 32.6676 147.654 32.206L151.254 32.6108C151.027 33.5625 150.594 34.3935 149.955 35.1037C149.323 35.8068 148.513 36.3537 147.526 36.7443C146.539 37.1278 145.409 37.3196 144.138 37.3196Z" fill="#FF00C7"/>
<path d="M9 12H27.0014C27.6039 12 28.1026 11.4794 27.9818 10.8565C27.3814 7.75864 24.3976 5.18311 20.5689 6.52926C19.7628 6.8127 18.808 6.24073 18.6354 5.36285C17.6587 0.39724 13.0082 0.163073 10.091 2.21511" stroke="#469BFF" stroke-width="2" stroke-linecap="round"/>
<path d="M15.5 15.5H25" stroke="#469BFF" stroke-width="2" stroke-linecap="round"/>
</svg>
